<?xml version="1.0" encoding="iso-8859-1"?>
<!-- Generator: Adobe Illustrator 19.0.0, SVG Export Plug-In . SVG Version: 6.00 Build 0)  -->
<svg version="1.1" id="Layer_1" xmlns="http://www.w3.org/2000/svg" xmlns:xlink="http://www.w3.org/1999/xlink" x="0px" y="0px"
	 viewBox="0 0 512.001 512.001" style="enable-background:new 0 0 512.001 512.001;" xml:space="preserve">
<path style="fill:#FFDAAA;" d="M387.812,215.709C308.574,105.238,202.981,83.269,201.615,83.256
	c-7.082-0.068-13.717,3.454-17.627,9.36l-50.645,76.494c-3.791,5.726-4.528,12.949-1.969,19.322
	c2.558,6.373,8.084,11.082,14.781,12.598c0.568,0.129,57.435,12.992,114.276,25.654c117.714,26.223,120.146,26.095,124.171,25.886
	c3.36-0.176,6.728-1.178,9.627-2.887C403.776,244.054,394.271,224.715,387.812,215.709z"/>
<g>
	<path style="fill:#FFC477;" d="M160.037,184.625c1.341,0.899,2.857,1.329,4.357,1.329c2.524,0,5.004-1.218,6.516-3.473
		l60.385-90.043c-5.837-2.243-10.986-4.005-15.282-5.353l-58.12,86.667C155.482,177.345,156.442,182.214,160.037,184.625z"/>
	<path style="fill:#FFC477;" d="M196.793,192.582c1.34,0.899,2.857,1.329,4.357,1.329c2.524,0,5.004-1.218,6.516-3.473
		l55.919-83.383c-4.931-2.568-9.681-4.89-14.197-6.971l-54.739,81.624C192.238,185.303,193.198,190.171,196.793,192.582z"/>
	<path style="fill:#FFC477;" d="M233.549,200.541c1.341,0.899,2.857,1.329,4.357,1.329c2.526,0,5.004-1.218,6.516-3.473
		l49.342-73.579c-4.508-2.973-8.942-5.746-13.283-8.333l-49.078,73.182C228.995,193.261,229.955,198.13,233.549,200.541z"/>
	<path style="fill:#FFC477;" d="M270.306,208.499c1.341,0.899,2.857,1.329,4.358,1.329c2.524,0,5.004-1.218,6.515-3.473
		l40.795-60.832c-4.16-3.384-8.3-6.599-12.404-9.644l-41.408,61.747C265.751,201.22,266.711,206.088,270.306,208.499z"/>
	<path style="fill:#FFC477;" d="M307.061,216.456c1.341,0.899,2.857,1.329,4.358,1.329c2.524,0,5.004-1.218,6.515-3.473
		l30.285-45.16c-3.834-3.811-7.678-7.463-11.522-10.958l-31.781,47.389C302.507,209.177,303.468,214.045,307.061,216.456z"/>
	<path style="fill:#FFC477;" d="M316.096,406.906c-1.299-4.183-13.586-41.28-13.627-41.401c-1.633-4.808-6.486-7.742-11.501-6.964
		l-100.311,15.617c-3.827,0.596-7.011,3.261-8.272,6.924c-1.261,3.663-0.392,7.724,2.259,10.549
		c1.421,1.515,35.71,37.113,113.808,37.116c0.003,0,0.006,0,0.009,0C301.803,428.746,322.878,428.746,316.096,406.906z"/>
	<path style="fill:#FFC477;" d="M462.75,274.309l46.502-76.791c4.648-7.675,3.296-17.553-3.242-23.697
		c-6.539-6.143-16.483-6.878-23.853-1.762l-107.114,74.354c-5.117,3.552-8.168,9.385-8.168,15.614v24.563
		c0,6.229,3.051,12.062,8.168,15.614l107.114,74.354c12.608,7.66,20.222,1.65,23.853-1.762c6.538-6.144,7.89-16.022,3.242-23.697
		L462.75,274.309z"/>
</g>
<path style="fill:#FFA733;" d="M419.901,243.997c-45.707-44.237-93.232-73.096-141.256-85.775
	c-139.106-36.724-234.048,69.39-253.043,92.9c-2.72-2.465-6.316-3.98-10.277-3.98C6.862,247.142,0,254.003,0,262.468
	c0,4.771,2.181,9.031,5.599,11.842c-3.417,2.811-5.598,7.072-5.598,11.843c0,8.464,6.861,15.326,15.326,15.326
	c2.769,0,5.36-0.745,7.602-2.03c48.477,48.987,96.674,78.291,145.108,91.077c152.197,40.181,251.772-93.368,255.938-99.072
	C434.645,276.835,432.909,256.584,419.901,243.997z"/>
<circle style="fill:#FFFFFF;" cx="85.505" cy="249.345" r="23.498"/>
<path style="fill:#FFC477;" d="M344.576,297.346c-1.755-1.742-43.597-42.678-96.295-42.678c-11.624,0-22.998,2.025-33.807,6.019
	c-3.561,1.316-6.128,4.46-6.706,8.212s0.926,7.522,3.927,9.848l33.437,25.917c1.557,1.208,3.425,1.95,5.386,2.141l85.682,8.357
	c0.341,0.033,0.68,0.049,1.019,0.049c4.016,0,7.718-2.314,9.452-6.003C348.551,305.208,347.712,300.459,344.576,297.346z"/>
<g>
	<path style="fill:#FF9811;" d="M428.945,258.17c-1.152,3.321-2.799,6.522-4.965,9.489c-4.166,5.704-103.742,139.253-255.938,99.072
		c-46.174-12.19-92.132-39.405-138.323-84.362c0.002,0.005,0.003,0.017,0.005,0.019c-5.547-5.291-9.141-5.42-10.454-5.223
		c-1.256,0.336-2.575,0.519-3.937,0.519c-4.729,0-8.351-2.091-9.865-3.248c-3.335,2.812-5.461,7.012-5.461,11.715
		c0,8.464,6.861,15.326,15.326,15.326c2.769,0,5.36-0.745,7.602-2.03c48.477,48.987,96.674,78.291,145.108,91.077
		c152.197,40.181,251.772-93.368,255.938-99.072C431.199,281.563,432.732,269.097,428.945,258.17z"/>
	<path style="fill:#FF9811;" d="M5.467,274.436c0.048-0.04,0.09-0.087,0.138-0.126C4.375,273.297,4.446,273.656,5.467,274.436z"/>
</g>
<path style="fill:#FFDAAA;" d="M135.805,167.93c-5.492,2.287-10.706,4.675-15.843,7.252c30.161,22.548,49.477,58.53,49.477,98.999
	c0,40.038-19.336,75.755-48.952,98.344c5.297,2.617,10.699,5.084,16.018,7.298c29.687-25.55,48.608-63.493,48.608-105.641
	C185.113,231.595,166.027,193.488,135.805,167.93z"/>
<path style="fill:#FFC477;" d="M120.573,372.526c5.297,2.617,10.699,5.084,16.018,7.298c6.16-5.302,11.848-11.144,17.008-17.439
	c-5.249-1.749-10.496-3.686-15.741-5.836C132.608,362.401,126.822,367.758,120.573,372.526z"/>
<g>
	<path style="fill:#EE8700;" d="M248.586,207.311l-9.075-9.074c-1.383-1.383-3.649-1.383-5.032,0l-9.075,9.075
		c-1.383,1.384-1.383,3.649,0,5.032l9.075,9.074c1.383,1.383,3.649,1.383,5.032,0l9.075-9.075
		C249.97,210.958,249.97,208.694,248.586,207.311z"/>
	<path style="fill:#EE8700;" d="M280.225,227.897l-9.075-9.074c-1.385-1.383-3.649-1.383-5.032,0l-9.075,9.075
		c-1.383,1.383-1.383,3.649,0,5.032l9.075,9.074c1.383,1.383,3.649,1.383,5.032,0l9.075-9.075
		C281.609,231.545,281.609,229.281,280.225,227.897z"/>
	<path style="fill:#EE8700;" d="M309.302,205.788l-9.075-9.074c-1.383-1.383-3.649-1.383-5.032,0l-9.075,9.075
		c-1.383,1.383-1.383,3.649,0,5.032l9.075,9.074c1.385,1.383,3.649,1.383,5.032,0l9.075-9.075
		C310.687,209.436,310.687,207.172,309.302,205.788z"/>
	<path style="fill:#EE8700;" d="M219.238,349.121l-9.075-9.074c-1.383-1.383-3.649-1.383-5.032,0l-9.075,9.075
		c-1.383,1.383-1.383,3.649,0,5.032l9.075,9.074c1.384,1.383,3.649,1.383,5.032,0l9.075-9.075
		C220.622,352.77,220.622,350.504,219.238,349.121z"/>
	<path style="fill:#EE8700;" d="M252.766,334.402l-9.075-9.074c-1.383-1.383-3.649-1.383-5.032,0l-9.075,9.075
		c-1.383,1.384-1.383,3.649,0,5.032l9.075,9.074c1.383,1.383,3.649,1.383,5.032,0l9.075-9.075
		C254.149,338.051,254.149,335.786,252.766,334.402z"/>
</g>
<circle style="fill:#B9D8F4;" cx="27.868" cy="190.653" r="14.629"/>
<path style="fill:#96C8EF;" d="M54.164,162.671c2.058,0,4.086-0.836,5.538-2.299c1.463-1.452,2.299-3.469,2.299-5.538
	s-0.836-4.086-2.299-5.538c-1.452-1.463-3.48-2.299-5.538-2.299c-2.058,0-4.086,0.836-5.538,2.299
	c-1.463,1.452-2.299,3.48-2.299,5.538c0,2.058,0.836,4.086,2.299,5.538C50.08,161.835,52.107,162.671,54.164,162.671z"/>
<path style="fill:#57565C;" d="M85.5,257.177c2.058,0,4.086-0.836,5.538-2.299c1.463-1.452,2.299-3.469,2.299-5.538
	s-0.836-4.086-2.299-5.538c-1.452-1.463-3.48-2.299-5.538-2.299c-2.058,0-4.086,0.836-5.538,2.299
	c-1.463,1.452-2.299,3.48-2.299,5.538c0,2.058,0.836,4.086,2.299,5.538C81.414,256.341,83.441,257.177,85.5,257.177z"/>
<g>
</g>
<g>
</g>
<g>
</g>
<g>
</g>
<g>
</g>
<g>
</g>
<g>
</g>
<g>
</g>
<g>
</g>
<g>
</g>
<g>
</g>
<g>
</g>
<g>
</g>
<g>
</g>
<g>
</g>
</svg>
