<?xml version="1.0" encoding="iso-8859-1"?>
<!-- Generator: Adobe Illustrator 19.0.0, SVG Export Plug-In . SVG Version: 6.00 Build 0)  -->
<svg version="1.1" id="Capa_1" xmlns="http://www.w3.org/2000/svg" xmlns:xlink="http://www.w3.org/1999/xlink" x="0px" y="0px"
	 viewBox="0 0 211.573 211.573" style="enable-background:new 0 0 211.573 211.573;" xml:space="preserve">
<g>
	<path style="fill:#D88336;" d="M135.317,198.968c14.628-5.946,16.093-17.847,29.357-24.315
		c70.809-34.537,20.847-79.118,24.734-87.611c4.73-10.335,9.264-88.759-7.484-87.013c-22.201,2.315-24.014,40.275-38.854,41.427
		c-14.84,1.152-35.867,8.477-35.867,8.477s-24.141-7.325-38.984-8.428C53.375,40.401,51.439,2.448,29.229,0.204
		C12.477-1.488,17.263,76.921,22.028,87.24c3.915,8.481-45.903,53.224,25.019,87.53c13.283,6.426,14.705,18.531,29.436,24.22
		c16.607,6.415,29.303-14.142,29.303-14.142S116.585,206.581,135.317,198.968z"/>
	<path style="fill:#EBEBEC;" d="M72.974,197.392c0,0,16.172,14.181,32.843,14.181c16.672,0,32.842-14.181,32.842-14.181
		l-3.572-25.055l-60.79-1.795L72.974,197.392z"/>
	<path style="fill:#F9B9B9;" d="M95.306,195.898c0,0,6.93,2.95,10.385,2.95c3.454,0,9.199-2.95,9.199-2.95l4.436-5.273l-8.908-7.148
		H100.04L95.306,195.898z"/>
	<path style="fill:#EBEBEC;" d="M202.583,134.059c-5.701,0.103-12.418-0.773-15.709-5.097c-4.24-5.57-15.42-17.476-26.924-4.437
		c-13.629,15.449-29.205,17.917-37.529,2.139c-4.298-8.148-0.786-18.1,5.014-21.959c8.812-5.864,25.987-1.116,25.987-3.334
		c0-3.678-20.266-2.647-26.362-8.64c-3.112-3.058,6.6-14.194,5.404-15.957c-1.195-1.762-13.844,12.106-17.935,9.3
		c-7.219-4.951-5.737-31.718-8.742-31.718c-3.004,0-5.664,28.493-10.836,31.718c-2.857,1.781-14.314-10.826-15.841-9.3
		c-1.526,1.526,8.224,10.652,3.099,15.565c-6.334,6.071-27.099,6.607-27.099,9.698c0,1.706,18.565-2.661,27.098,2.667
		c6.925,4.324,10.647,14.18,5.926,21.959c-9.255,15.251-24.227,13.09-37.464-2.696c-11.173-13.325-22.648-1.705-27.026,3.755
		c-3.205,3.998-9.377,4.853-14.847,4.732c1.214,13.835,10.467,28.876,38.251,42.315c13.283,6.426,14.705,18.531,29.436,24.22
		c16.607,6.415,29.303-14.142,29.303-14.142s10.799,21.732,29.531,14.119c14.628-5.946,16.093-17.847,29.357-24.315
		C191.184,161.723,200.766,147.385,202.583,134.059z"/>
	<g>
		<path style="fill:#F2D86B;" d="M85.517,122.266c0,0-8.035-25.502-28.072-12.375c0,0-6.343,14.119,7.472,20.556
			C68.225,131.989,79.965,134.398,85.517,122.266z"/>
		<circle style="fill:#4C4845;" cx="70.754" cy="118.935" r="11.454"/>
		<circle style="fill:#FFFFFF;" cx="72.974" cy="112.204" r="2.904"/>
	</g>
	<path style="fill:#FCD0D0;" d="M29.464,74.563c0,0,19.191-27.019,26.923-28.193c7.731-1.174-22.496-46.532-29.272-41.408
		C20.339,10.085,26.821,73.682,29.464,74.563z"/>
	<path style="fill:#FCD0D0;" d="M181.229,74.563c0,0-19.19-27.019-26.922-28.193c-7.732-1.174,22.496-46.532,29.271-41.408
		C190.355,10.085,183.873,73.682,181.229,74.563z"/>
	<g>
		<path style="fill:#97EFEC;" d="M123.895,122.266c0,0,8.035-25.502,28.072-12.375c0,0,6.344,14.119-7.471,20.556
			C141.188,131.989,129.448,134.398,123.895,122.266z"/>
		<circle style="fill:#4C4845;" cx="138.659" cy="118.935" r="11.454"/>
		<circle style="fill:#FFFFFF;" cx="136.438" cy="112.204" r="2.904"/>
	</g>
	<path style="fill:#DDD7D7;" d="M121.106,194.412c-7.523,0-13.779-5.392-15.136-12.521h-0.281c0,8.515,6.902,15.417,15.417,15.417
		c8.515,0,15.419-6.902,15.419-15.417h-0.281C134.888,189.02,128.63,194.412,121.106,194.412z"/>
	<path style="fill:#DDD7D7;" d="M90.271,194.412c-7.523,0-13.779-5.392-15.136-12.521h-0.281c0,8.515,6.902,15.417,15.417,15.417
		c8.514,0,15.418-6.902,15.418-15.417h-0.281C104.053,189.02,97.794,194.412,90.271,194.412z"/>
	<path style="fill:#F9B9B9;" d="M109.349,161.198h-7.127c-9.593,0-6.492,8.622-3.619,8.622c4.217,0,5.036,2.081,6.615,2.505v14.089
		h1.051v-14.068c1.638-0.37,2.409-2.526,6.699-2.526C115.843,169.82,118.946,161.198,109.349,161.198z"/>
	<path style="opacity:0.2;fill:#FFFFFF;" d="M107.203,49.933c0,0-24.141-7.325-38.984-8.428
		C53.375,40.401,51.439,2.448,29.229,0.204C12.477-1.488,17.263,76.921,22.028,87.24c3.915,8.481-45.903,53.224,25.019,87.53
		c12.143,5.874,14.38,16.491,25.926,22.618v0.004c0,0,16.172,14.181,32.843,14.181c0.5,0,1-0.014,1.499-0.039v-24.086v-15.93V49.894
		C107.249,49.916,107.203,49.933,107.203,49.933z"/>
</g>
<g>
</g>
<g>
</g>
<g>
</g>
<g>
</g>
<g>
</g>
<g>
</g>
<g>
</g>
<g>
</g>
<g>
</g>
<g>
</g>
<g>
</g>
<g>
</g>
<g>
</g>
<g>
</g>
<g>
</g>
</svg>
