<?xml version="1.0" encoding="iso-8859-1"?>
<!-- Generator: Adobe Illustrator 19.0.0, SVG Export Plug-In . SVG Version: 6.00 Build 0)  -->
<svg version="1.1" id="Layer_1" xmlns="http://www.w3.org/2000/svg" xmlns:xlink="http://www.w3.org/1999/xlink" x="0px" y="0px"
	 viewBox="0 0 512 512" style="enable-background:new 0 0 512 512;" xml:space="preserve">
<path style="fill:#FFDEB7;" d="M256,320.101H144v144c0,0,56,24,72,24s24-8,40-8s24,8,40,8s72-24,72-24v-144H256z"/>
<g>
	<path style="fill:#A06446;" d="M171.709,53.046C148.003,56.343,115.5,16.045,64,16.045c-31.013,0-56,112-56,112c6,15,24,24,24,24"
		/>
	<path style="fill:#A06446;" d="M340.291,53.046C363.997,56.343,396.5,16.045,448,16.045c31.013,0,56,112,56,112c-6,15-24,24-24,24"
		/>
</g>
<g>
	<path style="fill:#BE7D55;" d="M218.922,48.832c8.034-0.232,22.476-0.628,32.057-0.771
		C239.882,48.117,229.199,48.365,218.922,48.832z"/>
	<path style="fill:#BE7D55;" d="M176.034,229.721C177.707,170.019,235.94,83.576,200,50.882c-0.307-0.279-0.622-0.554-0.943-0.826
		C105.635,57.487,49.945,87.292,32,168.045c-10.024,45.111-24,71.144-24,120c0,108,91.333,134,95.272,168.667l83.942-224.611h-8.878
		C177.034,232.101,175.998,231.022,176.034,229.721z"/>
	<path style="fill:#BE7D55;" d="M262.468,48.067c11.427,0.197,30.479,0.808,33.96,0.921
		C285.573,48.439,274.252,48.146,262.468,48.067z"/>
	<path style="fill:#BE7D55;" d="M480,168.045C461.127,83.117,400.503,54.544,298.147,49.082L312,49.986c0,0,0.207,0.598-0.216,1.021
		c-32.519,32.545,22.605,122.847,24.182,178.695c0.037,1.31-0.995,2.399-2.305,2.399h-8.875l83.942,224.611
		C412.667,422.045,504,396.045,504,288.045C504,239.189,490.024,213.157,480,168.045z"/>
</g>
<path style="fill:#FFDEB7;" d="M335.966,229.702c-1.577-55.848-56.7-146.15-24.182-178.695c0.423-0.423,0.216-1.021,0.216-1.021
	l-13.853-0.904L297,49.007c0,0-0.212-0.007-0.572-0.018c-3.481-0.114-22.533-0.725-33.96-0.921
	c-2.139-0.036-4.018-0.059-5.468-0.061c-1.597-0.002-3.667,0.019-6.021,0.054c-9.581,0.143-24.023,0.539-32.057,0.771
	c-3.6,0.104-5.922,0.175-5.922,0.175l-14,1l0.001,0.001c0.019,0.016,0.037,0.033,0.056,0.049c0.321,0.271,0.637,0.546,0.943,0.826
	c35.94,32.693-22.293,119.136-23.966,178.838c-0.037,1.302,1,2.38,2.302,2.38h8.878h137.571h8.875
	C334.971,232.101,336.002,231.012,335.966,229.702z"/>
<g>
	<path style="fill:#FFEBD2;" d="M256,200.045c-107,0-159,76-144,174.167c0,0-19.638,86.489,0,113.833c5.354,7.456,32,16.333,32-8
		c0-120,15.333-152,112-152"/>
	<path style="fill:#FFEBD2;" d="M256,200.045c107,0,159,76,144,174.167c0,0,19.638,86.489,0,113.833c-5.354,7.456-32,16.333-32-8
		c0-120-15.333-152-112-152"/>
</g>
<path style="fill:#464655;" d="M304,272.045c0,22.091-21.49,8-48,8s-48,14.091-48-8s21.49-40,48-40S304,249.954,304,272.045z"/>
<path style="fill:none;stroke:#000000;stroke-width:16;stroke-linecap:round;stroke-linejoin:round;stroke-miterlimit:10;" d="
	M304,360.045c-22.667-8.667-48-8-48-8s-25.333-0.667-48,8"/>
<path d="M120,184.045c-8.822,0-16,7.178-16,16c0,8.823,7.178,16,16,16s16-7.177,16-16C136,191.223,128.822,184.045,120,184.045z"/>
<path d="M392,184.045c-8.822,0-16,7.178-16,16c0,8.823,7.178,16,16,16s16-7.177,16-16C408,191.223,400.822,184.045,392,184.045z"/>
<path d="M497.774,204.084c-3.374-11.705-6.861-23.809-9.965-37.774c-0.628-2.825-1.308-5.591-2.031-8.312
	c5.536-3.194,19.894-12.592,25.649-26.981c0.599-1.497,0.731-3.14,0.38-4.713c-0.26-1.164-6.475-28.822-16.655-56.979
	C480.037,27.518,465.054,8.045,448,8.045c-31.4,0-55.721,13.704-75.262,24.714c-12.696,7.154-23.669,13.332-31.207,12.374
	c-24.149-3.45-52.271-5.088-85.531-5.088s-61.382,1.638-85.531,5.088c-7.538,0.957-18.51-5.22-31.207-12.374
	C119.72,21.75,95.4,8.045,64,8.045c-17.054,0-32.037,19.472-47.153,61.28C6.667,97.481,0.452,125.14,0.192,126.304
	c-0.351,1.573-0.218,3.216,0.38,4.713c5.756,14.39,20.113,23.787,25.649,26.981c-0.723,2.721-1.403,5.487-2.031,8.312
	c-3.104,13.965-6.591,26.069-9.965,37.774C6.91,229.469,0,253.447,0,288.045c0,32.699,7.883,61.088,24.099,86.791
	c13.758,21.806,31.245,37.871,45.296,50.781c13.356,12.27,24.891,22.866,25.929,31.999c0.075,0.663,0.237,1.294,0.46,1.892
	c1.086,13.267,3.955,25.18,9.719,33.205c4.399,6.125,14.95,11.243,24.819,11.242c2.547,0,5.05-0.342,7.389-1.094
	c4.297-1.383,14.291-6.375,14.291-22.815c0-5.328,0.029-10.5,0.094-15.521c19.427,11.253,46.277,23.209,72.663,23.208
	c8.578-0.001,17.109-1.265,25.317-4.227c3.877-1.399,7.976-1.399,11.853,0c8.21,2.963,16.737,4.227,25.317,4.227
	c26.384,0,53.236-11.956,72.663-23.208c0.064,5.021,0.094,10.193,0.094,15.521c0,16.44,9.994,21.432,14.291,22.815
	c2.339,0.753,4.841,1.094,7.389,1.094c9.869,0,20.42-5.118,24.819-11.242c5.764-8.025,8.633-19.938,9.719-33.205
	c0.223-0.598,0.385-1.229,0.46-1.892c1.038-9.132,12.572-19.729,25.928-31.999c14.051-12.91,31.539-28.975,45.296-50.781
	C504.117,349.134,512,320.744,512,288.045C512,253.447,505.09,229.469,497.774,204.084z M480.061,74.639
	c8.098,22.373,13.745,45.059,15.53,52.566c-3.553,6.813-10.286,12.084-14.751,15.037c-6.537-17.941-15.532-33.285-27.093-46.154
	c-0.037-0.051-0.067-0.104-0.104-0.154c-28.833-38.096-30.169-55.211-28.4-62.022c0.633-2.437,2.144-5.936,7.786-8.641
	c4.793-0.785,9.776-1.227,14.973-1.227C450.295,24.045,462.629,26.484,480.061,74.639z M380.592,46.699
	c8.884-5.006,18.328-10.326,28.679-14.551c-1.733,9.578,0.721,21.293,7.447,35.356c-1.722-0.911-3.462-1.806-5.244-2.665
	c-11.509-5.549-24.325-10.097-38.822-13.719C375.241,49.712,377.882,48.226,380.592,46.699z M139.349,51.12
	c-14.497,3.622-27.314,8.17-38.823,13.719c-1.782,0.859-3.522,1.754-5.244,2.665c6.727-14.063,9.18-25.778,7.447-35.356
	c10.351,4.226,19.794,9.545,28.679,14.551C134.118,48.226,136.759,49.712,139.349,51.12z M16.41,127.203
	c1.779-7.487,7.399-30.076,15.484-52.438C49.348,26.491,61.701,24.045,64,24.045c5.197,0,10.179,0.442,14.973,1.227
	c5.642,2.705,7.152,6.204,7.786,8.641c1.77,6.811,0.433,23.926-28.4,62.022c-0.038,0.05-0.068,0.103-0.104,0.154
	c-11.56,12.867-20.554,28.208-27.09,46.146C26.694,139.27,19.954,133.986,16.41,127.203z M267.358,468.456
	c-1.104-0.398-2.226-0.729-3.358-1.007v-35.404c0-4.418-3.582-8-8-8s-8,3.582-8,8v35.403c-1.132,0.278-2.254,0.609-3.358,1.008
	c-30.909,11.153-69.588-8.131-92.11-22.365c1.386-37.732,5.862-65.248,17.796-82.493c13.543-19.57,38.364-27.552,85.671-27.552
	s72.128,7.982,85.671,27.552c11.934,17.245,16.411,44.761,17.796,82.493C336.946,460.325,298.265,479.609,267.358,468.456z
	 M256,240.045c22.056,0,40,14.355,40,32c0,2.773-0.437,3.867-0.583,4.155c-2.002,0.915-9.714-0.466-14.85-1.386
	c-6.888-1.233-15.46-2.769-24.568-2.769s-17.68,1.536-24.568,2.769c-5.135,0.92-12.849,2.303-14.85,1.386
	c-0.146-0.289-0.583-1.382-0.583-4.155C216,254.4,233.944,240.045,256,240.045z M379.156,487.618
	c-0.78-0.257-3.156-1.042-3.156-7.572c0-58.625-3.542-100.077-21.172-125.552c-16.063-23.21-42.669-33.376-90.828-34.361v-31.649
	c4.83,0.49,9.475,1.316,13.747,2.081c5.5,0.985,10.632,1.905,15.26,1.905c4.846,0,9.139-1.009,12.719-4.004
	c4.222-3.533,6.273-8.903,6.273-16.419c0-4.168-0.625-8.213-1.796-12.071c24.887,8.498,44.909,25.902,59.652,51.93
	c1.472,2.599,4.18,4.059,6.968,4.059c1.336,0,2.69-0.335,3.936-1.041c3.844-2.178,5.196-7.06,3.018-10.904
	c-20.074-35.44-48.959-56.881-85.855-63.747c-10.268-9.941-25.251-16.226-41.923-16.226s-31.655,6.284-41.923,16.226
	c-36.896,6.866-65.781,28.307-85.855,63.747c-2.178,3.844-0.826,8.726,3.018,10.904c1.246,0.706,2.6,1.041,3.936,1.041
	c2.788,0,5.496-1.459,6.968-4.059c14.743-26.028,34.766-43.432,59.652-51.93c-1.17,3.858-1.796,7.903-1.796,12.071
	c0,7.516,2.052,12.886,6.273,16.419c7,5.858,16.722,4.116,27.979,2.1c4.272-0.765,8.917-1.591,13.747-2.081v31.649
	c-48.159,0.985-74.766,11.151-90.828,34.361C139.542,379.969,136,421.421,136,480.045c0,6.531-2.375,7.315-3.156,7.572
	c-4.724,1.559-12.851-2.22-14.346-4.239c-14.37-20.009-3.931-84.31,1.304-107.397c0.222-0.978,0.258-1.988,0.106-2.979
	c-7.465-48.854,2.426-92.062,27.85-121.666c24.323-28.321,61.752-43.292,108.242-43.292s83.919,14.97,108.242,43.292
	c25.424,29.604,35.314,72.813,27.85,121.666c-0.151,0.991-0.115,2.001,0.107,2.979c5.24,23.08,15.689,87.364,1.305,107.395
	C392.007,485.397,383.879,489.177,379.156,487.618z M431.78,413.834c-5.752,5.284-11.076,10.178-15.64,14.957
	c-1.692-24.643-6.421-47.646-8.008-54.869c7.746-52.931-3.506-100.12-31.752-133.009c-26.012-30.29-64.752-47.039-112.38-48.717
	v-16.15c0-4.418-3.582-8-8-8s-8,3.582-8,8v16.15c-47.628,1.678-86.368,18.427-112.38,48.717
	c-28.246,32.889-39.498,80.079-31.752,133.009c-1.587,7.223-6.316,30.227-8.008,54.869c-4.564-4.779-9.888-9.673-15.64-14.957
	C53.118,388.936,16,354.836,16,288.045c0-32.339,6.302-54.208,13.6-79.53c3.44-11.939,6.999-24.285,10.209-38.734
	c5.826-26.216,15.75-46.996,30.425-63.223c0.242-0.23,0.471-0.476,0.687-0.741C80.887,95.001,93,86.23,107.474,79.252
	c17.558-8.466,38.605-14.455,64.76-18.227c0.192-0.022,0.385-0.027,0.577-0.055c0.192-0.027,0.379-0.068,0.567-0.108
	c23.181-3.267,50.346-4.816,82.622-4.816s59.442,1.549,82.623,4.817c0.188,0.039,0.374,0.081,0.566,0.107
	c0.191,0.027,0.383,0.032,0.575,0.055c26.155,3.772,47.203,9.761,64.762,18.227c14.474,6.978,26.587,15.749,36.553,26.565
	c0.216,0.265,0.445,0.511,0.687,0.74c14.676,16.227,24.6,37.007,30.426,63.223c3.211,14.45,6.769,26.795,10.209,38.734
	c7.298,25.322,13.6,47.191,13.6,79.53C496,354.836,458.882,388.936,431.78,413.834z"/>
<g>
</g>
<g>
</g>
<g>
</g>
<g>
</g>
<g>
</g>
<g>
</g>
<g>
</g>
<g>
</g>
<g>
</g>
<g>
</g>
<g>
</g>
<g>
</g>
<g>
</g>
<g>
</g>
<g>
</g>
</svg>
